<svg xmlns="http://www.w3.org/2000/svg" width="1024" height="1024" viewBox="0 0 1024 1024">
<defs><linearGradient id="bg" x1="0" y1="0" x2="0.85" y2="1"><stop offset="0" stop-color="#242424"/><stop offset="1" stop-color="#0a0a0a"/></linearGradient></defs><rect width="1024" height="1024" fill="url(#bg)"/>
<rect x="202.05" y="202.05" width="121.25" height="121.25" rx="22.00" fill="none" stroke="#FFFFFF" stroke-opacity="0.17" stroke-width="9.54"/>
<rect x="202.05" y="368.27" width="121.25" height="121.25" rx="22.00" fill="none" stroke="#FFFFFF" stroke-opacity="0.17" stroke-width="9.54"/>
<rect x="202.05" y="534.48" width="121.25" height="121.25" rx="22.00" fill="none" stroke="#FFFFFF" stroke-opacity="0.17" stroke-width="9.54"/>
<rect x="194.56" y="693.20" width="136.24" height="136.24" rx="25.89" fill="#FF6700"/>
<rect x="368.27" y="202.05" width="121.25" height="121.25" rx="22.00" fill="none" stroke="#FFFFFF" stroke-opacity="0.17" stroke-width="9.54"/>
<rect x="368.27" y="368.27" width="121.25" height="121.25" rx="22.00" fill="none" stroke="#FFFFFF" stroke-opacity="0.17" stroke-width="9.54"/>
<rect x="360.77" y="526.99" width="136.24" height="136.24" rx="25.89" fill="#FF6700"/>
<rect x="360.77" y="693.20" width="136.24" height="136.24" rx="25.89" fill="#FF6700"/>
<rect x="534.48" y="202.05" width="121.25" height="121.25" rx="22.00" fill="none" stroke="#FFFFFF" stroke-opacity="0.17" stroke-width="9.54"/>
<rect x="526.99" y="360.77" width="136.24" height="136.24" rx="25.89" fill="#FF6700"/>
<rect x="526.99" y="526.99" width="136.24" height="136.24" rx="25.89" fill="#FF6700"/>
<rect x="526.99" y="693.20" width="136.24" height="136.24" rx="25.89" fill="#FF6700"/>
<rect x="693.20" y="194.56" width="136.24" height="136.24" rx="25.89" fill="#FF6700"/>
<rect x="693.20" y="360.77" width="136.24" height="136.24" rx="25.89" fill="#FF6700"/>
<rect x="693.20" y="526.99" width="136.24" height="136.24" rx="25.89" fill="#FF6700"/>
<rect x="693.20" y="693.20" width="136.24" height="136.24" rx="25.89" fill="#FF6700"/>
</svg>