<svg xmlns="http://www.w3.org/2000/svg" width="466" height="466" viewBox="0 0 466 466">
<rect x="5.50" y="5.50" width="89.00" height="89.00" rx="16.15" fill="none" stroke="#FFFFFF" stroke-opacity="0.22" stroke-width="7.00"/>
<rect x="5.50" y="127.50" width="89.00" height="89.00" rx="16.15" fill="none" stroke="#FFFFFF" stroke-opacity="0.22" stroke-width="7.00"/>
<rect x="5.50" y="249.50" width="89.00" height="89.00" rx="16.15" fill="none" stroke="#FFFFFF" stroke-opacity="0.22" stroke-width="7.00"/>
<rect x="0.00" y="366.00" width="100.00" height="100.00" rx="19.00" fill="#FF6700"/>
<rect x="127.50" y="5.50" width="89.00" height="89.00" rx="16.15" fill="none" stroke="#FFFFFF" stroke-opacity="0.22" stroke-width="7.00"/>
<rect x="127.50" y="127.50" width="89.00" height="89.00" rx="16.15" fill="none" stroke="#FFFFFF" stroke-opacity="0.22" stroke-width="7.00"/>
<rect x="122.00" y="244.00" width="100.00" height="100.00" rx="19.00" fill="#FF6700"/>
<rect x="122.00" y="366.00" width="100.00" height="100.00" rx="19.00" fill="#FF6700"/>
<rect x="249.50" y="5.50" width="89.00" height="89.00" rx="16.15" fill="none" stroke="#FFFFFF" stroke-opacity="0.22" stroke-width="7.00"/>
<rect x="244.00" y="122.00" width="100.00" height="100.00" rx="19.00" fill="#FF6700"/>
<rect x="244.00" y="244.00" width="100.00" height="100.00" rx="19.00" fill="#FF6700"/>
<rect x="244.00" y="366.00" width="100.00" height="100.00" rx="19.00" fill="#FF6700"/>
<rect x="366.00" y="0.00" width="100.00" height="100.00" rx="19.00" fill="#FF6700"/>
<rect x="366.00" y="122.00" width="100.00" height="100.00" rx="19.00" fill="#FF6700"/>
<rect x="366.00" y="244.00" width="100.00" height="100.00" rx="19.00" fill="#FF6700"/>
<rect x="366.00" y="366.00" width="100.00" height="100.00" rx="19.00" fill="#FF6700"/>
</svg>