<svg xmlns="http://www.w3.org/2000/svg" width="1024" height="1024" viewBox="0 0 1024 1024">
<rect x="222.05" y="222.05" width="113.43" height="113.43" rx="20.58" fill="none" stroke="#FFFFFF" stroke-opacity="0.2" stroke-width="8.92"/>
<rect x="222.05" y="377.54" width="113.43" height="113.43" rx="20.58" fill="none" stroke="#FFFFFF" stroke-opacity="0.2" stroke-width="8.92"/>
<rect x="222.05" y="533.03" width="113.43" height="113.43" rx="20.58" fill="none" stroke="#FFFFFF" stroke-opacity="0.2" stroke-width="8.92"/>
<rect x="215.04" y="681.51" width="127.45" height="127.45" rx="24.22" fill="#FF6700"/>
<rect x="377.54" y="222.05" width="113.43" height="113.43" rx="20.58" fill="none" stroke="#FFFFFF" stroke-opacity="0.2" stroke-width="8.92"/>
<rect x="377.54" y="377.54" width="113.43" height="113.43" rx="20.58" fill="none" stroke="#FFFFFF" stroke-opacity="0.2" stroke-width="8.92"/>
<rect x="370.53" y="526.02" width="127.45" height="127.45" rx="24.22" fill="#FF6700"/>
<rect x="370.53" y="681.51" width="127.45" height="127.45" rx="24.22" fill="#FF6700"/>
<rect x="533.03" y="222.05" width="113.43" height="113.43" rx="20.58" fill="none" stroke="#FFFFFF" stroke-opacity="0.2" stroke-width="8.92"/>
<rect x="526.02" y="370.53" width="127.45" height="127.45" rx="24.22" fill="#FF6700"/>
<rect x="526.02" y="526.02" width="127.45" height="127.45" rx="24.22" fill="#FF6700"/>
<rect x="526.02" y="681.51" width="127.45" height="127.45" rx="24.22" fill="#FF6700"/>
<rect x="681.51" y="215.04" width="127.45" height="127.45" rx="24.22" fill="#FF6700"/>
<rect x="681.51" y="370.53" width="127.45" height="127.45" rx="24.22" fill="#FF6700"/>
<rect x="681.51" y="526.02" width="127.45" height="127.45" rx="24.22" fill="#FF6700"/>
<rect x="681.51" y="681.51" width="127.45" height="127.45" rx="24.22" fill="#FF6700"/>
</svg>